<svg xmlns="http://www.w3.org/2000/svg" width="157" height="35" fill="none" xmlns:v="https://vecta.io/nano"><path d="M60.241 8.598l-5.419 19.196h-6.168L43.235 8.598h4.439l4.064 15.276 4.064-15.276h4.439zm5.443 3.401h-4.151v-4.41h4.151v4.41zm0 15.795h-4.151V13.757h4.151v14.037zm7.334 0h-4.151V8.021l4.151-.576v20.349zm7.333 0H76.2V8.021l4.151-.576v20.349zm14.106 0h-3.401l-.288-.893c-1.422.788-2.757 1.182-4.006 1.182-1.23 0-2.152-.394-2.767-1.182-.596-.788-.893-1.816-.893-3.084 0-1.403.327-2.412.98-3.027.672-.615 1.739-.922 3.199-.922h3.027v-1.066c0-.769-.154-1.278-.461-1.528-.288-.269-.961-.403-2.018-.403-1.153 0-2.421.134-3.805.403l-.548-3.113c1.518-.461 3.199-.692 5.044-.692 2.364 0 3.939.394 4.727 1.182.807.769 1.21 2.162 1.21 4.179v8.964zm-4.15-3.43V22.75h-1.989c-.461 0-.788.077-.98.231-.173.135-.259.394-.259.778s.087.663.259.836.461.259.865.259c.692 0 1.393-.163 2.104-.49zm6.169-4.611v-1.701c.058-3.055 1.97-4.583 5.735-4.583a9.83 9.83 0 0 1 2.393.288h4.381v1.96l-1.412.519c.211.519.336 1.124.374 1.816v1.701c0 1.383-.49 2.479-1.47 3.286-.96.788-2.382 1.182-4.266 1.182h-.432c-.403.25-.605.509-.605.778 0 .346.154.538.461.576l3.488.346c1.21.096 2.075.404 2.594.922.538.5.807 1.335.807 2.508 0 1.633-.519 2.777-1.557 3.43-1.018.653-2.651.98-4.9.98-1.921 0-3.785-.24-5.591-.721l.605-3.027c1.595.384 3.132.576 4.612.576 1.172 0 1.969-.058 2.392-.173s.634-.394.634-.836c0-.269-.077-.461-.23-.576-.154-.096-.442-.163-.865-.202l-3.574-.346c-1.057-.115-1.826-.336-2.306-.663-.461-.346-.692-.97-.692-1.873s.404-1.758 1.211-2.565c-1.191-.711-1.787-1.912-1.787-3.603zm4.294.865c.289.211.769.317 1.441.317s1.153-.106 1.442-.317c.288-.231.432-.586.432-1.067v-1.326c0-.98-.625-1.47-1.874-1.47s-1.873.49-1.873 1.47v1.326c0 .48.144.836.432 1.067zm20.937 1.613h-7.552v.403c0 .788.183 1.326.548 1.614s1.028.432 1.989.432c1.518 0 2.94-.202 4.266-.605l.605 3.113c-1.633.596-3.392.894-5.275.894-4.189 0-6.283-1.902-6.283-5.707V19.09c0-3.747 2.008-5.621 6.024-5.621 1.114 0 2.056.154 2.824.461.788.308 1.374.749 1.759 1.326.403.576.682 1.191.836 1.845.172.634.259 1.364.259 2.191v2.94zm-3.92-3.113v-.605c0-.557-.125-.99-.375-1.297-.23-.327-.682-.49-1.354-.49-1.269 0-1.903.596-1.903 1.787v.605h3.632zm11.422 2.595c0-.73.173-1.355.519-1.874.365-.538.999-1.047 1.903-1.528-1.307-.845-1.96-1.922-1.96-3.228v-1.614c0-1.518.442-2.661 1.325-3.43.904-.769 2.393-1.153 4.468-1.153s3.555.384 4.439 1.153c.903.769 1.355 1.912 1.355 3.43v1.614c0 .711-.144 1.316-.433 1.816-.288.48-.797.951-1.527 1.412.903.48 1.527.99 1.873 1.528.365.519.548 1.143.548 1.874v1.47c0 1.768-.471 3.026-1.413 3.776s-2.555 1.124-4.842 1.124-3.901-.375-4.842-1.124-1.413-2.008-1.413-3.776v-1.47zm4.007 1.412c0 .596.154 1.009.461 1.239.327.211.922.317 1.787.317.846 0 1.432-.115 1.758-.346.327-.25.49-.653.49-1.211v-.951c0-.519-.125-.903-.374-1.153s-.894-.577-1.932-.98c-1.018.384-1.642.701-1.873.951-.211.25-.317.644-.317 1.182v.951zm.461-8.099c0 .461.106.798.317 1.009s.721.471 1.528.778c.807-.288 1.297-.538 1.47-.749s.259-.557.259-1.038v-1.383c0-.5-.125-.855-.375-1.066s-.72-.317-1.412-.317-1.162.106-1.412.317-.375.567-.375 1.066v1.383zm10.353 6.687c0-.73.173-1.355.519-1.874.365-.538.999-1.047 1.902-1.528-1.307-.845-1.96-1.922-1.96-3.228v-1.614c0-1.518.442-2.661 1.326-3.43.903-.769 2.392-1.153 4.468-1.153s3.555.384 4.438 1.153c.904.769 1.355 1.912 1.355 3.43v1.614c0 .711-.144 1.316-.432 1.816-.288.48-.798.951-1.528 1.412.903.48 1.528.99 1.874 1.528.365.519.547 1.143.547 1.874v1.47c0 1.768-.47 3.026-1.412 3.776s-2.556 1.124-4.842 1.124-3.901-.375-4.843-1.124-1.412-2.008-1.412-3.776v-1.47zm4.006 1.412c0 .596.154 1.009.462 1.239.326.211.922.317 1.787.317.845 0 1.431-.115 1.758-.346.327-.25.49-.653.49-1.211v-.951c0-.519-.125-.903-.375-1.153s-.893-.577-1.931-.98c-1.018.384-1.643.701-1.874.951-.211.25-.317.644-.317 1.182v.951zm.462-8.099c0 .461.105.798.317 1.009s.72.471 1.527.778c.807-.288 1.297-.538 1.47-.749s.26-.557.26-1.038v-1.383c0-.5-.125-.855-.375-1.066s-.721-.317-1.412-.317-1.163.106-1.413.317-.374.567-.374 1.066v1.383z" fill="#0b0d47"/><path fill-rule="evenodd" d="M35 17.5C35 27.165 27.165 35 17.5 35S0 27.165 0 17.5 7.835 0 17.5 0 35 7.835 35 17.5zm-31.983 0c0 7.999 6.484 14.483 14.483 14.483S31.983 25.499 31.983 17.5 25.499 3.017 17.5 3.017 3.017 9.501 3.017 17.5zM7 9.333h4.093l3.405 10.024 3.405-10.024h4.093l-2.806 7.614c-.071-.004-.142-.006-.213-.006-1.684 0-3.321 1.128-3.321 2.827 0 .663.262 1.249.671 1.709-.464.47-.775 1.081-.803 1.781h-3.39L7 9.333zm9.259 10.435c0-1.21 1.208-2.191 2.701-2.199h.017c1.501 0 2.717.984 2.717 2.199 0 .703-.407 1.328-1.041 1.731.713.419 1.176 1.098 1.176 1.864 0 1.272-1.277 2.303-2.851 2.303s-2.851-1.031-2.851-2.303a1.82 1.82 0 0 1 .003-.105c.029-.518.269-.991.652-1.365.152-.148.327-.281.52-.394-.189-.12-.358-.26-.503-.416-.338-.367-.539-.822-.539-1.315zm2.717.872c.463 0 .839-.281.839-.628s-.376-.628-.839-.628-.839.281-.839.628.375.628.839.628zm.034 3.211c.519 0 .939-.312.939-.698s-.421-.698-.939-.698-.939.313-.939.698.421.698.939.698zm7.815-2.352c.634-.402 1.042-1.028 1.042-1.731 0-1.214-1.217-2.199-2.717-2.199s-2.717.984-2.717 2.199c0 .703.407 1.328 1.041 1.731-.712.419-1.176 1.098-1.176 1.864 0 1.272 1.277 2.303 2.851 2.303S28 24.635 28 23.363c0-.766-.463-1.445-1.176-1.864zm-1.676-.858c.463 0 .839-.281.839-.628s-.375-.628-.839-.628-.839.281-.839.628.375.628.839.628zm.034 3.211c.519 0 .939-.312.939-.698s-.421-.698-.939-.698-.939.313-.939.698.421.698.939.698z" fill="#518af7"/></svg>